<svg width="20" height="21" viewBox="0 0 20 21" fill="none" xmlns="http://www.w3.org/2000/svg">
<g clip-path="url(#clip0_904_1589)">
<path d="M10.0001 13.8333C11.841 13.8333 13.3334 12.3409 13.3334 10.5C13.3334 8.65904 11.841 7.16666 10.0001 7.16666C8.15913 7.16666 6.66675 8.65904 6.66675 10.5C6.66675 12.3409 8.15913 13.8333 10.0001 13.8333Z" fill="#9E9E9E"/>
<path d="M19.3925 8.34916C18.1 6.24416 15.16 2.71249 10 2.71249C4.84004 2.71249 1.90004 6.24416 0.607543 8.34916C0.207983 8.99542 -0.00366211 9.7402 -0.00366211 10.5C-0.00366211 11.2598 0.207983 12.0046 0.607543 12.6508C1.90004 14.7558 4.84004 18.2875 10 18.2875C15.16 18.2875 18.1 14.7558 19.3925 12.6508C19.7921 12.0046 20.0037 11.2598 20.0037 10.5C20.0037 9.7402 19.7921 8.99542 19.3925 8.34916ZM10 15.5C9.01114 15.5 8.04444 15.2067 7.22219 14.6573C6.39995 14.1079 5.75908 13.327 5.38064 12.4134C5.00221 11.4998 4.90319 10.4944 5.09612 9.52454C5.28904 8.55464 5.76525 7.66372 6.46451 6.96446C7.16377 6.2652 8.05469 5.78899 9.02459 5.59607C9.9945 5.40314 10.9998 5.50216 11.9135 5.8806C12.8271 6.25903 13.608 6.8999 14.1574 7.72214C14.7068 8.54439 15 9.51109 15 10.5C14.9987 11.8257 14.4715 13.0967 13.5341 14.0341C12.5967 14.9715 11.3257 15.4987 10 15.5Z" fill="#9E9E9E"/>
</g>
<defs>
<clipPath id="clip0_904_1589">
<rect width="20" height="20" fill="white" transform="translate(0 0.5)"/>
</clipPath>
</defs>
</svg>
