<svg width="20" height="20" viewBox="0 0 20 20" fill="none" xmlns="http://www.w3.org/2000/svg">
<path fill-rule="evenodd" clip-rule="evenodd" d="M9.99998 5.83326C8.46583 5.83326 7.22216 7.07693 7.22216 8.61108C7.22216 10.1452 8.46583 11.3889 9.99998 11.3889C11.5341 11.3889 12.7778 10.1452 12.7778 8.61108C12.7778 7.07693 11.5341 5.83326 9.99998 5.83326ZM8.61107 8.61108C8.61107 7.844 9.2329 7.22217 9.99998 7.22217C10.7671 7.22217 11.3889 7.844 11.3889 8.61108C11.3889 9.37815 10.7671 9.99999 9.99998 9.99999C9.2329 9.99999 8.61107 9.37815 8.61107 8.61108Z" fill="black"/>
<path fill-rule="evenodd" clip-rule="evenodd" d="M9.61439 18.2166C9.61459 18.2167 9.61477 18.2168 9.99998 17.639L9.61439 18.2166C9.84766 18.3721 10.1519 18.3723 10.3852 18.2168L9.99998 17.639C10.3852 18.2168 10.385 18.217 10.3852 18.2168L10.3876 18.2153L10.3922 18.2121L10.4081 18.2014C10.4216 18.1922 10.4409 18.179 10.4656 18.1619C10.5149 18.1278 10.5858 18.078 10.6751 18.0135C10.8538 17.8844 11.1067 17.6961 11.4092 17.4553C12.013 16.9744 12.8199 16.2798 13.6292 15.4256C15.2193 13.7471 16.9445 11.3208 16.9445 8.61108C16.9445 6.76927 16.2129 5.00289 14.9105 3.70053C13.6082 2.39818 11.8418 1.66652 9.99998 1.66652C8.15817 1.66652 6.39179 2.39818 5.08943 3.70053C3.78708 5.00289 3.05542 6.76927 3.05542 8.61108C3.05542 11.3208 4.78063 13.7471 6.37079 15.4256C7.18006 16.2798 7.98698 16.9744 8.59081 17.4553C8.89327 17.6961 9.14618 17.8844 9.32482 18.0135C9.41418 18.078 9.48506 18.1278 9.53439 18.1619C9.55905 18.179 9.57834 18.1922 9.59186 18.2014L9.60778 18.2121L9.6124 18.2153L9.61439 18.2166ZM6.07154 4.68264C7.11343 3.64076 8.52653 3.05543 9.99998 3.05543C11.4734 3.05543 12.8865 3.64076 13.9284 4.68264C14.9703 5.72453 15.5556 7.13763 15.5556 8.61108C15.5556 10.7625 14.1558 12.8502 12.6209 14.4704C11.8676 15.2655 11.112 15.9164 10.544 16.3687C10.3325 16.5371 10.1479 16.6773 9.99998 16.7866C9.85208 16.6773 9.66741 16.5371 9.456 16.3687C8.88793 15.9164 8.13232 15.2655 7.37907 14.4704C5.84417 12.8502 4.44433 10.7625 4.44433 8.61108C4.44433 7.13763 5.02966 5.72453 6.07154 4.68264Z" fill="black"/>
</svg>
